<?xml version="1.0" standalone="no"?>
<!DOCTYPE svg PUBLIC "-//W3C//DTD SVG 20010904//EN"
 "http://www.w3.org/TR/2001/REC-SVG-20010904/DTD/svg10.dtd">
<svg version="1.0" xmlns="http://www.w3.org/2000/svg"
 width="512.000000pt" height="512.000000pt" viewBox="0 0 512.000000 512.000000"
 preserveAspectRatio="xMidYMid meet">

<g transform="translate(0.000000,512.000000) scale(0.100000,-0.100000)"
fill="#000000" stroke="none">
<path d="M365 5106 c-44 -20 -352 -335 -360 -368 -4 -16 -4 -40 -1 -55 5 -19
339 -360 1054 -1075 l1047 -1048 -1047 -1047 c-715 -716 -1049 -1057 -1054
-1075 -3 -16 -3 -40 1 -55 7 -32 313 -345 359 -370 71 -37 12 -91 1149 1045
l1047 1047 1048 -1047 c1136 -1136 1077 -1082 1148 -1045 46 25 352 338 359
369 4 16 4 40 1 55 -5 19 -339 360 -1054 1075 l-1047 1048 1047 1048 c715 715
1049 1056 1054 1075 3 15 3 39 -1 55 -7 31 -313 344 -359 369 -71 37 -12 91
-1149 -1045 l-1047 -1047 -1043 1042 c-589 589 -1054 1047 -1070 1053 -36 13
-45 12 -82 -4z"/>
</g>
</svg>
