<?xml version="1.0" standalone="no"?>
<!DOCTYPE svg PUBLIC "-//W3C//DTD SVG 20010904//EN"
 "http://www.w3.org/TR/2001/REC-SVG-20010904/DTD/svg10.dtd">
<svg version="1.0" xmlns="http://www.w3.org/2000/svg"
 width="1024.000000pt" height="1024.000000pt" viewBox="0 0 1024.000000 1024.000000"
 preserveAspectRatio="xMidYMid meet">

<g transform="translate(0.000000,1024.000000) scale(0.100000,-0.100000)"
fill="#000000" stroke="none">
<path d="M4850 8269 c-609 -67 -1163 -289 -1623 -652 -508 -401 -905 -970
-1092 -1567 -54 -172 -109 -431 -117 -545 l-3 -40 165 0 165 0 26 123 c112
519 372 998 760 1396 l116 119 31 -23 c25 -19 39 -22 82 -18 55 6 68 14 235
142 141 108 269 187 430 266 592 291 1199 348 1818 170 314 -90 666 -279 917
-490 113 -96 150 -109 221 -78 47 20 50 20 75 3 45 -29 195 -184 275 -285 243
-303 425 -649 528 -1003 21 -73 46 -176 56 -229 l17 -98 164 0 c90 0 165 4
169 9 6 11 -8 113 -36 261 -115 588 -410 1140 -858 1603 -173 178 -329 307
-551 454 -356 236 -814 405 -1270 468 -137 19 -574 28 -700 14z m465 -279
c293 -19 530 -69 793 -169 298 -113 534 -247 782 -441 112 -88 135 -113 126
-135 -11 -30 -54 -15 -128 44 -431 340 -891 542 -1383 607 -187 25 -549 25
-718 0 -542 -79 -1041 -306 -1466 -669 -56 -48 -92 -61 -117 -43 -23 18 -9 39
69 103 527 432 1080 664 1676 702 184 12 192 12 366 1z"/>
<path d="M4920 7659 c-456 -45 -924 -231 -1280 -508 -115 -89 -336 -306 -424
-416 -142 -178 -294 -413 -303 -470 -5 -30 -2 -36 20 -46 67 -31 154 22 223
134 138 228 355 471 589 663 288 237 753 429 1140 474 116 13 369 13 493 0
549 -59 1104 -346 1466 -760 94 -107 210 -257 283 -365 53 -78 111 -131 163
-146 78 -24 99 18 55 108 -37 75 -196 312 -273 406 -410 502 -957 817 -1582
912 -127 19 -440 27 -570 14z"/>
<path d="M5088 7253 c-33 -21 -48 -53 -48 -99 0 -48 54 -104 99 -104 39 0 85
23 105 52 24 34 20 98 -7 132 -30 37 -106 47 -149 19z"/>
<path d="M4166 7059 c-43 -37 -54 -81 -33 -132 35 -83 146 -89 198 -11 49 75
-7 174 -100 174 -20 0 -43 -11 -65 -31z"/>
<path d="M6002 7070 c-39 -24 -55 -62 -49 -114 14 -108 164 -131 211 -32 20
42 20 59 0 101 -16 35 -65 65 -106 65 -12 0 -38 -9 -56 -20z"/>
<path d="M5297 6649 c-104 -11 -215 -42 -306 -86 -64 -31 -213 -128 -554 -361
-90 -62 -93 -64 -142 -58 -384 46 -842 26 -1099 -49 -201 -58 -451 -194 -497
-269 -28 -45 -24 -94 11 -149 17 -26 30 -50 30 -53 0 -4 -11 -19 -25 -36 -90
-106 60 -179 478 -233 l47 -6 0 68 c0 177 99 343 244 413 233 111 496 19 612
-214 33 -67 37 -86 41 -168 3 -72 0 -108 -15 -160 l-19 -68 989 0 c887 0 990
2 984 15 -61 159 -49 323 33 444 49 72 95 113 171 151 171 87 380 51 520 -88
89 -90 139 -211 140 -339 0 -63 2 -63 125 -34 204 49 432 160 484 236 45 66
13 139 -66 153 l-41 7 49 73 c51 76 62 122 37 155 -17 21 -106 64 -438 212
-164 72 -592 233 -785 295 -235 75 -483 127 -704 150 -116 11 -190 11 -304 -1z
m441 -168 c125 -26 200 -53 268 -96 246 -157 5 -292 -616 -346 -268 -23 -771
8 -814 51 -13 14 -16 12 214 177 227 162 298 198 455 229 104 20 361 12 493
-15z m1018 -280 c201 -41 438 -137 542 -220 51 -41 69 -70 35 -56 -154 62
-450 157 -573 185 -183 41 -481 51 -605 21 -22 -6 -41 -8 -44 -6 -8 9 148 76
210 90 88 20 302 13 435 -14z m-3691 -295 c24 -24 48 -93 41 -117 -2 -8 -7
-26 -10 -41 -3 -14 -18 -40 -32 -57 -47 -57 -124 -35 -144 40 -19 69 8 146 63
179 41 26 53 25 82 -4z m2953 -248 c-4 -32 -139 -118 -262 -167 -192 -76 -389
-115 -666 -132 -204 -12 -378 -5 -540 22 -137 23 -193 40 -282 86 -73 38 -89
60 -35 49 108 -23 254 -48 330 -56 116 -13 474 -13 607 0 241 24 527 93 725
174 61 25 114 45 118 46 5 0 7 -10 5 -22z"/>
<path d="M5751 6385 c-14 -41 -78 -96 -142 -123 -110 -47 -304 -75 -652 -94
-131 -6 -231 -16 -224 -20 8 -4 63 -12 123 -18 339 -32 864 19 1037 100 86 41
73 102 -33 158 -79 41 -93 41 -109 -3z"/>
<path d="M3583 5761 c-126 -43 -208 -141 -233 -280 -20 -111 14 -215 96 -298
117 -116 295 -134 432 -43 104 70 154 163 155 292 1 66 -3 84 -31 141 -81 163
-259 244 -419 188z"/>
<path d="M6383 5766 c-153 -50 -253 -201 -241 -364 15 -203 212 -355 406 -313
116 25 203 91 251 191 22 47 26 68 26 145 0 78 -4 98 -27 145 -35 70 -107 143
-176 177 -65 32 -174 40 -239 19z"/>
<path d="M1792 5337 c-30 -32 -30 -99 0 -127 21 -20 31 -20 689 -20 367 0 670
4 673 8 3 5 -32 17 -77 26 -45 10 -194 44 -330 77 l-249 59 -342 0 -343 0 -21
-23z"/>
<path d="M7600 5325 c-369 -83 -518 -120 -514 -127 6 -9 1364 -11 1389 -2 25
10 48 62 40 93 -4 14 -16 36 -27 49 l-21 22 -361 -1 -361 -1 -145 -33z"/>
<path d="M2292 4851 c-8 -5 -12 -17 -10 -27 3 -18 22 -19 466 -22 454 -2 462
-2 462 18 0 10 -9 24 -19 30 -24 12 -880 14 -899 1z"/>
<path d="M7085 4846 c-11 -8 -16 -19 -12 -30 6 -14 48 -16 455 -16 471 0 491
2 455 42 -15 17 -44 18 -448 18 -347 0 -435 -3 -450 -14z"/>
<path d="M3838 4820 c-79 -14 -143 -39 -205 -79 -178 -116 -277 -301 -276
-516 1 -176 57 -308 188 -440 124 -126 236 -170 425 -169 123 1 223 30 330 94
114 69 111 62 53 123 -27 29 -63 73 -78 97 -15 25 -29 47 -31 49 -2 2 -30 -15
-63 -37 -176 -117 -412 -58 -505 126 -45 88 -40 231 12 325 34 63 110 131 169
151 98 34 241 14 321 -44 23 -16 45 -30 50 -30 4 0 27 25 52 56 24 30 62 71
83 90 l39 35 -39 34 c-45 41 -154 100 -220 121 -57 18 -238 27 -305 14z"/>
<path d="M5027 4808 c-3 -7 -62 -155 -132 -328 -70 -173 -142 -351 -160 -395
-19 -44 -61 -145 -94 -225 -33 -80 -67 -162 -76 -182 l-15 -38 149 0 149 0 39
98 39 97 242 3 242 2 10 -26 c6 -14 24 -60 41 -100 l31 -74 144 0 c79 0 144 4
144 9 0 5 -7 26 -17 47 -9 22 -114 282 -233 579 l-217 540 -141 3 c-106 2
-141 -1 -145 -10z m207 -547 c36 -91 66 -168 66 -173 0 -4 -61 -8 -135 -8 -74
0 -135 3 -135 8 0 7 134 341 136 339 1 -1 31 -76 68 -166z"/>
<path d="M5988 4783 l27 -36 0 -511 c0 -458 -2 -515 -17 -553 l-17 -43 168 0
c92 0 170 2 173 5 3 3 -1 29 -9 57 -7 30 -13 104 -13 175 l0 123 50 0 50 0 53
-82 c29 -46 80 -127 112 -180 l59 -98 153 0 c84 0 153 3 152 8 0 4 -53 93
-118 197 l-118 190 51 28 c106 58 168 147 187 269 28 183 -67 360 -236 439
-80 38 -202 49 -517 48 l-218 0 28 -36z m526 -233 c142 -33 179 -223 56 -294
-27 -16 -57 -21 -152 -24 l-118 -4 0 166 0 166 88 0 c48 0 105 -5 126 -10z"/>
<path d="M1800 4510 c-31 -31 -27 -85 9 -121 l29 -29 219 0 c248 0 270 -5 335
-78 45 -50 52 -64 118 -227 113 -281 274 -558 448 -775 435 -539 1078 -906
1782 -1017 91 -14 174 -18 395 -18 262 0 290 2 437 28 486 86 914 271 1299
562 138 104 382 351 495 500 185 246 289 430 399 710 81 205 109 248 195 296
19 10 85 15 263 19 l239 5 24 28 c30 35 32 89 4 117 -20 20 -33 20 -655 20
-681 0 -678 0 -705 -49 -19 -36 -12 -86 16 -115 22 -22 36 -26 80 -26 46 0 56
-3 70 -25 26 -40 13 -93 -59 -239 -64 -129 -209 -358 -283 -446 -75 -90 -303
-307 -395 -376 -316 -237 -657 -386 -1046 -456 -111 -20 -160 -23 -373 -23
-257 1 -370 12 -544 56 -390 97 -745 289 -1050 567 -207 190 -406 463 -517
712 -82 183 -77 218 31 231 50 6 68 12 82 31 20 26 24 79 8 109 -27 49 -24 49
-700 49 -617 0 -630 0 -650 -20z m1635 -1300 c0 -33 -2 -35 -35 -35 -29 0 -36
4 -38 23 -6 40 5 54 40 50 30 -3 33 -6 33 -38z m3483 12 c5 -32 -16 -54 -47
-50 -18 2 -27 10 -29 26 -6 40 5 54 40 50 26 -2 34 -8 36 -26z m-3276 -179
c24 -22 23 -49 -4 -67 -28 -20 -33 -20 -52 0 -29 29 -14 84 23 84 8 0 23 -7
33 -17z m3068 1 c17 -20 2 -67 -23 -72 -22 -4 -57 25 -57 48 0 38 55 55 80 24z
m-261 -163 c36 -36 -4 -95 -48 -72 -27 15 -34 41 -16 67 19 29 39 30 64 5z
m-2551 -3 c27 -27 7 -78 -30 -78 -27 0 -52 44 -38 69 12 23 49 28 68 9z m363
-171 c137 -62 378 -123 584 -148 122 -15 447 -15 570 1 215 26 433 82 614 157
90 36 118 37 139 3 25 -40 -4 -63 -145 -114 -349 -128 -623 -174 -968 -163
-288 10 -549 63 -818 167 -115 45 -134 63 -114 107 17 38 33 37 138 -10z"/>
<path d="M2060 4266 c0 -25 119 -362 165 -466 133 -304 300 -570 511 -820 80
-95 286 -299 382 -378 452 -373 1009 -618 1583 -697 164 -22 504 -30 684 -16
647 52 1241 287 1753 694 101 80 326 300 417 407 284 335 479 692 634 1159 23
68 41 126 41 127 0 2 -42 4 -92 3 -171 -1 -202 -27 -284 -237 -71 -184 -192
-425 -282 -562 -314 -481 -741 -846 -1252 -1068 -400 -175 -764 -252 -1185
-252 -381 0 -707 61 -1045 197 -795 319 -1370 908 -1680 1723 -64 167 -106
200 -258 200 -71 0 -92 -3 -92 -14z"/>
<path d="M4559 3507 c-22 -15 -35 -32 -37 -50 -5 -46 20 -72 87 -91 48 -13 61
-21 61 -37 0 -25 -43 -26 -93 0 l-38 19 -16 -24 c-18 -28 -19 -26 22 -47 82
-42 161 -26 192 38 16 34 16 36 -4 63 -14 19 -38 32 -79 43 -37 10 -59 21 -59
30 0 18 57 24 86 9 18 -10 25 -9 43 9 24 25 17 34 -44 51 -54 15 -84 12 -121
-13z"/>
<path d="M5048 3476 l-3 -51 -57 -3 c-63 -3 -61 -5 -58 61 1 36 1 37 -34 37
l-36 0 0 -130 0 -130 35 0 35 0 0 50 c0 44 3 50 24 56 13 3 38 4 57 2 34 -3
34 -3 37 -59 3 -55 3 -55 32 -51 l30 4 0 128 0 128 -30 4 c-29 4 -29 4 -32
-46z"/>
<path d="M5316 3520 c-40 -12 -63 -36 -82 -86 -16 -41 -16 -47 0 -89 32 -83
115 -114 196 -73 158 81 58 299 -114 248z m107 -82 c36 -43 11 -110 -45 -124
-22 -5 -33 0 -58 24 -31 32 -38 66 -17 93 33 43 87 46 120 7z"/>
<path d="M5614 3498 c3 -13 6 -71 6 -130 l0 -108 30 0 c26 0 30 3 30 29 0 54
8 61 65 61 43 0 57 5 79 26 36 37 36 94 0 123 -23 18 -41 21 -122 21 -93 0
-94 0 -88 -22z m163 -44 c11 -29 -11 -49 -53 -49 -37 0 -39 2 -42 33 -3 32 -3
32 43 32 33 0 47 -4 52 -16z"/>
</g>
</svg>
